<svg xmlns="http://www.w3.org/2000/svg" xmlns:xlink="http://www.w3.org/1999/xlink" width="200px" x="0px" y="0px" style="enable-background:new 0 0 2507 1120" version="1.1" viewBox="0 0 2507 1120" xml:space="preserve">
    <g>
        <path d="M1713.7,93.9l696.7,233.4v693.1H1406.2c-40.9-36.4-94.7-58.5-153.7-58.5c-59,0-112.8,22.1-153.7,58.5H555.1l-19.4,63.6
		h583.1h4.2l18.1-16.1c30.7-27.3,70.3-42.4,111.4-42.4c41.1,0,80.7,15,111.4,42.4l18.1,16.1h24.2h1004.2h63.6v-63.6V327.3v-45.8
		l-43.4-14.5L1733.9,33.6l-9.8-3.3l0,0h-10.4H96.6H33v63.6v926.5v63.6h83.6h425.7l19.1-63.6H96.6V93.9H1713.7" fill="#000000"/>
        <g>
            <path d="M212.3,845.7c0.6-3.5,1.1-7.1,1.9-10.6c3.7-15.9,14.4-25.2,29.1-30.5c13.5-4.9,27.6-6.5,41.8-7.8
			c16.3-1.4,32.8-1.2,48.8-5.4c1.7-0.5,3.5-1,5.2-1.7c8.8-3.6,10.7-8.6,6.4-17.2c-3.1-6.2-8.6-9.6-15-11.3
			c-9.6-2.7-19.4-2.9-29.2-0.7c-10.9,2.5-18.1,9-20.3,20.3c-0.2,0.9-0.4,1.7-0.6,2.6c-20.8,0-41.4,0-62.4,0c1.4-22.4,9.4-41,28.2-54
			c11.9-8.3,25.5-12.5,39.6-14.7c23.7-3.6,47.4-3.4,70.9,2c15.4,3.5,29.4,9.8,40.2,21.9c10.2,11.4,14.6,25.2,14.9,40.2
			c0.4,17.1,0.1,34.1,0.1,51.2c0,1.6,0,3.1,0.1,4.7c0.7,7.9,4.7,12.1,12.6,13.2c2.3,0.3,4.6,0.4,7.2,0.7c0,18.3,0,36.6,0,55.3
			c-14.4-0.7-28.8,1.5-42.9-1.8c-15.1-3.6-26.5-12.5-34-26.1c-0.4,0.2-0.9,0.3-1,0.6c-11.7,15.9-28,23.8-47.1,26.2
			c-20.1,2.5-40.1,1.6-59.3-5.3c-17.6-6.3-30.3-17.6-34-36.9c-0.4-2.1-0.8-4.3-1.1-6.4C212.3,851.3,212.3,848.5,212.3,845.7z
			 M347.4,816.2c-2.5,1.1-4.7,2.1-7,3c-10,4-20.7,4-31.1,5.6c-8,1.2-16,3-23.5,5.8c-6.7,2.5-9,8.4-7.8,15.2c1,6.1,4.7,9.6,12,10.7
			c14.5,2.1,28.4-0.1,41.3-7C345,842.3,349.8,832.2,347.4,816.2z"/>
            <path d="M1377.1,899.8c-21.2,0-42.1,0-63.3,0c0-6.9,0-13.5,0-20.2c-0.6-0.1-0.9-0.2-1-0.1c-13.8,13.9-30.9,20.8-50,23.1
			c-18.7,2.2-37.2,0.9-54.9-5.9c-22.2-8.6-37.8-24.1-46.3-46.2c-9.8-25.3-11.1-51.4-4-77.6c7.5-27.7,25.3-46.3,52.6-54.7
			c27.7-8.6,55.6-8.6,82.5,3.6c7.5,3.4,14,8.9,21,13.5c0-33.3,0-67.2,0-101.2c21.4,0,42.3,0,63.5,0
			C1377.1,722.5,1377.1,811,1377.1,899.8z M1219.5,806.5c0.1,23.2,10.9,39.1,30.9,44.7c12.1,3.5,24.3,3,36.2-1.1
			c11.5-4,19.7-11.7,23.9-23.2c4.1-11.1,4.3-22.5,1-33.9c-3.6-12.3-11.5-20.9-23.4-25.7c-8.4-3.4-17.2-4.2-26.2-3.8
			C1235.4,764.8,1219.4,781.1,1219.5,806.5z"/>
            <path d="M1135.4,822.2c-50.6,0-100.9,0-151.1,0c-0.6,17.2,10.5,30.9,28.2,34.6c12.2,2.5,24.5,2.2,36.6-0.6
			c9.2-2.1,16.4-6.9,19.1-16.6c21.9,0,43.6,0,66.2,0c-1.2,4.5-1.9,8.8-3.4,12.8c-5.3,14.5-15.5,24.8-28.3,32.8
			c-17.4,10.8-36.7,15.7-56.9,17.5c-24.7,2.2-49.1,0.8-72.4-8.8c-35-14.4-53.4-41-56.1-78.5c-1.6-22,2.5-42.7,15.3-61.1
			c13.1-18.7,31.3-30.2,53-36.1c33.4-9,66.7-8.7,98.5,5.8c33.1,15.1,49.7,41.9,51.1,78.1C1135.6,808.6,1135.4,815,1135.4,822.2z
			 M1068.7,787.8c-0.2-1.5-0.2-2.7-0.4-3.9c-2.2-10.6-8.7-17.8-18.4-21.9c-14.1-5.9-28.5-5.9-42.7-0.6
			c-11.9,4.5-18.2,14.1-21.4,26.4C1013.6,787.8,1041,787.8,1068.7,787.8z"/>
            <path d="M2182.4,904.4c-22.3-0.5-43.9-3.6-63.9-13.9c-29.4-15.2-44.2-40.1-46.9-72.6c-1.3-15.6,0.1-31,5.6-45.8
			c8.6-23.4,24.8-40,47.8-48.9c38.8-15,78.3-15.3,116.7,1c32.3,13.7,48.3,39.9,51.1,74.4c1.5,18.9-0.6,37.2-9,54.4
			c-11.4,23.4-30.9,37.3-55.2,44.7c-6.6,2-13.5,3.6-20.4,4.5C2199.7,903.3,2191,903.6,2182.4,904.4z M2182.3,852.2
			c3.7-0.4,7.5-0.5,11.2-1.1c16.3-2.9,28.3-11.3,32.9-27.8c1.7-6.1,2.1-12.8,2-19.1c-0.5-18.2-11.6-31.9-29.1-36.7
			c-8.1-2.2-16.2-2.6-24.6-1.8c-21.7,2.1-35.4,14.5-38.1,36c-2,15.9,1.4,30.5,14.8,41C2160.3,849.8,2171,851.9,2182.3,852.2z"/>
            <path d="M678.3,715.9c21.1,0,42.1,0,63.5,0c0,1.7,0,3.3,0,4.8c0,30.9,0,61.8,0,92.7c0,3.7,0.2,7.5,0.8,11.2c2,11,8.7,18,19.4,20.9
			c13.3,3.7,26.6,3.6,39.7-0.7c16.9-5.5,25.9-18.1,25.9-35.8c0.1-29.5,0-59,0-88.4c0-1.5,0-3,0-4.7c21.4,0,42.4,0,63.5,0
			c0,61.6,0,123,0,184.6c-21.1,0-42.1,0-63.5,0c0-10.4,0-20.7,0-31.9c-1.1,1.2-1.8,1.8-2.2,2.4c-15.3,21.3-36.5,31.4-62.2,32.7
			c-16.2,0.8-32-1.1-46.8-8.3c-20.3-9.9-31.8-26.6-36.1-48.4c-1.4-7.4-2.2-15.1-2.3-22.7c-0.2-35-0.1-70.1-0.1-105.1
			C678.1,718.2,678.2,717.2,678.3,715.9z"/>
            <path d="M1409.7,715.9c21.2,0,42.1,0,63.5,0c0,1.8,0,3.3,0,4.8c0,30.9,0,61.8,0,92.7c0,3.7,0.2,7.5,0.8,11.2
			c2,11,8.8,18,19.4,20.9c13.3,3.7,26.6,3.6,39.7-0.7c16.9-5.5,25.8-18.1,25.9-35.8c0.1-29.5,0-59,0-88.4c0-1.5,0-3,0-4.7
			c21.3,0,42.2,0,63.4,0c0,61.6,0,123,0,184.7c-21,0-42,0-63.3,0c0-10.4,0-20.7,0-31.9c-1.1,1.1-1.6,1.6-2,2.1
			c-15.1,21.2-36.1,31.5-61.6,32.9c-16.4,0.9-32.6-0.9-47.6-8.3c-20.3-9.9-31.8-26.6-36-48.5c-1.4-7.4-2.2-15.1-2.3-22.7
			c-0.2-35-0.1-70.1-0.1-105.1C1409.5,718.2,1409.6,717.2,1409.7,715.9z"/>
            <path d="M2045.7,770.5c-26.2,0-52,0-77.7,0c-0.3,0.5-0.6,0.7-0.6,0.9c0.1,15.4-0.7,30.8,0.6,46.1c1.5,19,10.3,26.7,29.5,27.3
			c18.1,0.6,36.2,0.3,54.3,0.4c1.5,0,3.1,0,4.9,0c0,18.6,0,36.8,0,55.3c-0.7,0.1-1.3,0.2-1.9,0.2c-22,0-44,0.1-65.9-0.2
			c-13.2-0.2-26.2-2.2-38.8-6.7c-27.6-9.9-43.2-30-46.1-58.6c-2-19.5-1.1-39.2-1.5-58.9c0-1.8,0-3.6,0-5.8c-10.5,0-20.7,0-31.1,0
			c0-18.4,0-36.4,0-54.9c10.3,0,20.4,0,31,0c0-22.2,0-44,0-66.1c21.8,0,43.1,0,64.9,0c0,21.9,0,43.8,0,66.2c26.4,0,52.3,0,78.4,0
			C2045.7,734.1,2045.7,752,2045.7,770.5z"/>
            <path d="M660.4,823.2c-0.9,17.1-6.7,32.2-17.5,45.2c-13.6,16.3-31.3,26-51.6,31c-28.6,7-57.2,6.5-85.1-3.2
			c-39.4-13.6-62.2-47.1-61.1-88.8c0.7-24.8,7.7-47.1,25.6-65c14.4-14.5,32.2-22.7,52-26.6c28.6-5.6,56.9-4.8,84.3,5.9
			c24.7,9.7,42.9,26.2,50.7,52.3c1.8,6,2.5,12.3,3.7,18.9c-2,0.2-3.1,0.4-4.2,0.4c-19.1,0-38.3,0-57.4,0c-1.8,0-3.3,0.1-4-2.4
			c-3.6-14-13.2-21.7-27-24.6c-9.8-2.1-19.5-2.1-29.2,0.3c-17.7,4.3-28.6,18-29.3,37.6c-0.2,6.9,0.5,14,2.2,20.6
			c2.7,11.1,10.3,18.7,20.9,22.8c12.4,4.8,25.2,5.4,38.1,2.1c12.4-3.2,20.4-11.1,23.6-23.7c0.5-1.9,0.8-3.2,3.3-3.2
			c20.2,0.1,40.3,0.1,60.5,0.1C659.1,822.9,659.5,823,660.4,823.2z"/>
            <path d="M1863.7,793c-1.3,0.1-2.3,0.2-3.3,0.2c-19.3,0-38.5,0-57.8,0c-1.8,0-3.1,0-3.7-2.3c-3.7-14.4-13.6-22.1-27.7-24.8
			c-11.3-2.2-22.7-2.1-33.6,2c-16.4,6.3-23.1,19.4-24.4,35.9c-0.8,11,0.5,21.7,7.1,31.1c6.8,9.7,16.7,13.9,27.9,15.6
			c9.3,1.4,18.6,1.3,27.7-1.5c11.8-3.7,19.4-11.5,22.2-23.6c0.5-2.2,1.3-3,3.5-2.9c19.8,0.1,39.6,0,59.3,0.1c0.7,0,1.5,0.2,2.5,0.3
			c-0.5,11.6-3.4,22.3-8.8,32.3c-10.2,18.9-25.9,31.9-45.9,39.1c-38.5,14-77,13.7-113.9-4.9c-29.1-14.7-43.8-39.9-46.3-72.2
			c-1.6-20.3,1.5-39.7,11.7-57.6c12.5-21.8,31.7-35.2,55.6-41.6c34.9-9.4,69.4-8.8,102.5,7.2c24.9,12,40.6,31.8,44.8,59.7
			c0.2,1.1,0.3,2.3,0.4,3.5C1863.7,789.9,1863.7,791.2,1863.7,793z"/>
        </g>
    </g>
</svg>
