<?xml version="1.0" encoding="utf-8"?>
<!-- Generator: Adobe Illustrator 23.0.3, SVG Export Plug-In . SVG Version: 6.00 Build 0)  -->
<svg version="1.1" id="Layer_1" xmlns="http://www.w3.org/2000/svg" xmlns:xlink="http://www.w3.org/1999/xlink" x="0px" y="0px"
	 viewBox="0 0 311.2 203.4" style="enable-background:new 0 0 311.2 203.4;" xml:space="preserve">
<g>
	<path style="fill:#3857A7;" d="M279.9,196.2c0.1,0.1,0.2,0.2,0.3,0.4C280.2,196.4,280.1,196.3,279.9,196.2z"/>
	<path style="fill:#3857A7;" d="M116.2,198.2c0.1,0.6,0.1,1.2,0.2,1.8C116.4,199.4,116.4,198.8,116.2,198.2z"/>
	<path style="fill:#3857A7;" d="M0,0v203.4h311.2V0H0z M214.2,97.1c-0.8,1-0.2,2.2-0.3,3.3c0.1,1-0.5,2,0.3,2.8c0,0.7,0,1.4,0,2
		c-0.9,0.8-0.6,1.9-0.8,2.9c-0.1,0.2-0.3,0.3-0.4,0.5c-1.2,4.2-2,8.5-2.2,12.9c-0.2,3.9-1.1,7.6,2.1,10.8c0.3,0.3,0.3,0.7,0.4,1.1
		c-0.1,0.5-0.2,1.1-0.3,1.6c-0.2,0.2,0,0.7-0.4,0.8c-0.7,0.9-1.1,1.5-1.2,2c-0.6,1.8-1.2,3.6-1.8,5.4c-0.9,2.7-1.9,5.4-3.2,7.9
		c-0.5,0.9-1,1.8-2.1,2.1c-2.8,0.8-5.7,0.8-8.4-0.5c-2.5-1.2-2.8-3.1-0.6-4.9c1.8-1.5,3.6-2.9,5-4.7c0.2,0.2,0.9-1,0.8-1.3
		c2.1-3.2,0.7-5.8-1.5-8.3c-1.7-1.8-3.3-3.7-4.5-5.9c0-0.3-0.1-0.6-0.5-0.7c-0.6-0.4-0.3-1.7-1.2-1.7c-1,0-1.1,1-1.5,1.7
		c-1.4,2.2-2.6,4.6-4,6.8c-1.7,2.7-4.2,4-7.5,3.8c-0.4,0-0.8-0.2-0.7-0.5c0.1-1.3-1.2-1.1-1.8-1.6c-0.8-1-1.7-0.4-2.6-0.3
		c-0.6-0.5,0.3-1.2-0.3-1.7c-0.3-1,0.3-1.6,1-2.2c1.6-1.3,3.5-2.1,5.3-3.1c1.5-0.8,2.8-1.9,3.5-3.5c0.2-0.4,0.3-0.8,0-1.1
		c-0.3-0.3-0.6-0.1-1,0.1c-0.4,0.2-0.9,0.3-1.3,0.6c-4.5,2.6-9.2,4.7-14.1,6.4c0,0,0,0,0,0c-0.4,0-0.9,0.1-1.3,0.3
		c-0.1,0-0.2,0.1-0.3,0.2c-0.4,0-0.8,0-1.2,0.1c-5.9,1.2-11.8,2-17.8,1.6c-1.2-0.1-1.6,2.5-2.1,3.3c-0.7,1.1-0.4,1.4-0.5,2.4
		c-0.1,1.1-1,2-0.8,3.1c0.4,2.8-0.4,4.8-3.5,5.2c-0.2,0-0.5,0.3-0.6,0.5c-1.3,2.4-4.2,3.8-4.4,6.9c0,0.6-0.4,1.1-0.9,1.2
		c-2.1,0.6-3.8,2.2-5.8,2.9c-0.2,0-0.4,0.1-0.5,0.2c-0.4,0-0.8,0-1.2,0c-0.4-0.7-1.1-0.5-1.7-0.4c-1.6,0-2.6-1.6-4.3-1.6
		c-0.1,0-0.4-0.5-0.4-0.6c0.5-1.2,0-2.5,1-3.7c1.1-1.3,2.4-2.1,3.7-3c1-0.3,1.8-0.8,2.4-1.7l0,0c1.3-1.4,1.4-2.9,0-4.3
		c-0.3-3.9-2.3-7.6-2-11.7c0.2-2.9-0.8-5.5-1.7-8.2c-1.8-5.2-4.2-10.3-3.5-16.1c0.4-2.9-0.7-5.2-2.5-7.4c-0.2-0.3-0.3-0.5-0.5-0.8
		c-0.3-0.6-0.7-1.2-1.5-1.3c-1.8-1.6-4-2.9-5.3-4.9c-0.8-1.2-1.2-1-2-1.5c-3-2.2-5.9-2.8-9-3.7c-0.7-0.4-1.4-0.7-2.1-1.1
		c-0.5-0.3-1.1-0.6-1.6-0.9c-0.2-0.3-0.5-0.6-0.9-0.7c-0.6-0.7-1.1-1.4-1.7-2.2c-0.6-1.9-1.7-3.6-1.7-5.6h0c0-1,0-2,0-3
		c-0.1-1,0.7-1.8,0.8-2.8c0.1-0.2,0.3-0.4,0.4-0.5c0.4-0.2,0.7-0.6,0.8-1.1c1.6-2.8,3.2-5.6,7.2-5c0.3,0,0.6-0.5,0.9-0.7
		c1-0.5,1.3-1.4,1.6-2.4c0-1.3,1.1-2,2-2.6c4.6-2.6,9.6-3.7,14.6-2.1c3.3,1.1,5.3,0.2,7.2-2.2c0.5-0.3,0.9-0.8,1.2-1.4
		c1.2-1.4,2.4-2.7,3.6-4.1c0.8-0.5,1.6-1.1,2.5-1.6c0.1,0,0.3,0,0.4,0c1.5,0.9,2,2.3,2,3.9c0,3.5,0.9,6.8,1.2,10.2
		c-0.1,0.2-0.1,0.5-0.1,0.7c-0.1,0.4-0.1,0.7-0.2,1.1c-0.2,0.3-0.3,0.5-0.5,0.8c-3.3,1.6-3.3,1.6-1.6,3.7c-0.3,1.5-0.8,3,0.3,4.5
		c0.8,1.5,2.5,2.2,3.4,3.6c0.3,0.8,0.9,1.3,1.8,1.3c2,0.1,2.9,1.3,3,3.1c0,0.6,0,1.2,0,1.8c0,0.6,0,1.2,0.8,1.1c2.3-0.2,3.6,1,4,3.1
		c0.8-0.3,1.4-0.8,2-0.8c0.6,0,1.1,0,1.7,0.1c0.5,0.1,1,0.4,1.3,0.8c0.6,0.9,0.2,2.8,0.8,2.8c1,0.1,1.9-0.9,3.3-0.8
		c1.4,0.1,3,1.6,4.5-0.1c0.1,0,0.2-0.1,0.4-0.1c1.5-0.2,2.9,0.5,4.6-0.2c0.8-0.4,1.5-0.6,2.4-0.9c0.7-0.2,1.4,0,2-0.3
		c0,0,0.1,0,0.1,0c5-0.8,9.2-1.4,13.8-2.1c3-0.4,5.8-0.6,8.8,0.3c1.5,0.5,3.2,1.1,4.9,1c1.9,0.8,3.9-0.1,5.8,0.5
		c2.5,0.8,4,2.7,5.4,4.8c1.3,1.6,1.6,3.7,2.8,5.3C214.2,96.9,214.2,97,214.2,97.1z"/>
</g>
</svg>
