<?xml version="1.0" encoding="utf-8"?>
<!-- Generator: Adobe Illustrator 23.0.3, SVG Export Plug-In . SVG Version: 6.00 Build 0)  -->
<svg version="1.1" id="Layer_1" xmlns="http://www.w3.org/2000/svg" xmlns:xlink="http://www.w3.org/1999/xlink" x="0px" y="0px"
	 viewBox="0 0 311.2 42.7" style="enable-background:new 0 0 311.2 42.7;" xml:space="preserve">
<style type="text/css">
	.st0{fill:#F4F4F4;}
</style>
<g>
	<g>
		<path class="st0" d="M4.7,31.8c0.1-0.5,0.2-1,0.3-1.5c0.5-2.3,2.1-3.6,4.2-4.4c2-0.7,4-0.9,6.1-1.1c2.4-0.2,4.8-0.2,7.1-0.8
			c0.3-0.1,0.5-0.1,0.7-0.2c1.3-0.5,1.6-1.2,0.9-2.5c-0.5-0.9-1.2-1.4-2.2-1.6c-1.4-0.4-2.8-0.4-4.2-0.1c-1.6,0.4-2.6,1.3-3,2.9
			c0,0.1-0.1,0.2-0.1,0.4c-3,0-6,0-9.1,0c0.2-3.2,1.4-5.9,4.1-7.8c1.7-1.2,3.7-1.8,5.8-2.1c3.4-0.5,6.9-0.5,10.3,0.3
			c2.2,0.5,4.3,1.4,5.8,3.2c1.5,1.7,2.1,3.6,2.2,5.8c0.1,2.5,0,4.9,0,7.4c0,0.2,0,0.4,0,0.7c0.1,1.1,0.7,1.8,1.8,1.9
			c0.3,0,0.7,0.1,1,0.1c0,2.6,0,5.3,0,8c-2.1-0.1-4.2,0.2-6.2-0.3c-2.2-0.5-3.8-1.8-4.9-3.8c-0.1,0-0.1,0-0.2,0.1
			c-1.7,2.3-4.1,3.4-6.8,3.8c-2.9,0.4-5.8,0.2-8.6-0.8c-2.6-0.9-4.4-2.5-4.9-5.3c-0.1-0.3-0.1-0.6-0.2-0.9
			C4.7,32.6,4.7,32.2,4.7,31.8z M24.3,27.5c-0.4,0.2-0.7,0.3-1,0.4c-1.5,0.6-3,0.6-4.5,0.8c-1.2,0.2-2.3,0.4-3.4,0.8
			c-1,0.4-1.3,1.2-1.1,2.2c0.1,0.9,0.7,1.4,1.7,1.5c2.1,0.3,4.1,0,6-1C24,31.3,24.7,29.9,24.3,27.5z"/>
		<path class="st0" d="M173.9,39.6c-3.1,0-6.1,0-9.2,0c0-1,0-2,0-2.9c-0.1,0-0.1,0-0.1,0c-2,2-4.5,3-7.3,3.3c-2.7,0.3-5.4,0.1-8-0.9
			c-3.2-1.2-5.5-3.5-6.7-6.7c-1.4-3.7-1.6-7.4-0.6-11.2c1.1-4,3.7-6.7,7.6-7.9c4-1.2,8.1-1.2,12,0.5c1.1,0.5,2,1.3,3.1,2
			c0-4.8,0-9.7,0-14.6c3.1,0,6.1,0,9.2,0C173.9,14,173.9,26.8,173.9,39.6z M151,26.1c0,3.4,1.6,5.6,4.5,6.5c1.8,0.5,3.5,0.4,5.3-0.2
			c1.7-0.6,2.9-1.7,3.5-3.4c0.6-1.6,0.6-3.3,0.1-4.9c-0.5-1.8-1.7-3-3.4-3.7c-1.2-0.5-2.5-0.6-3.8-0.6C153.3,20.1,151,22.5,151,26.1
			z"/>
		<path class="st0" d="M138.8,28.4c-7.4,0-14.7,0-21.9,0c-0.1,2.5,1.5,4.5,4.1,5c1.8,0.4,3.6,0.3,5.3-0.1c1.3-0.3,2.4-1,2.8-2.4
			c3.2,0,6.3,0,9.6,0c-0.2,0.6-0.3,1.3-0.5,1.8c-0.8,2.1-2.2,3.6-4.1,4.7c-2.5,1.6-5.3,2.3-8.3,2.5c-3.6,0.3-7.1,0.1-10.5-1.3
			c-5.1-2.1-7.8-5.9-8.2-11.3c-0.2-3.2,0.4-6.2,2.2-8.8c1.9-2.7,4.6-4.4,7.7-5.2c4.9-1.3,9.7-1.3,14.3,0.8c4.8,2.2,7.2,6.1,7.4,11.3
			C138.8,26.4,138.8,27.4,138.8,28.4z M129.1,23.4c0-0.2,0-0.4-0.1-0.6c-0.3-1.5-1.3-2.6-2.7-3.2c-2-0.8-4.1-0.9-6.2-0.1
			c-1.7,0.7-2.6,2-3.1,3.8C121.1,23.4,125.1,23.4,129.1,23.4z"/>
		<path class="st0" d="M290.9,40.3c-3.2-0.1-6.4-0.5-9.3-2c-4.3-2.2-6.4-5.8-6.8-10.5c-0.2-2.3,0-4.5,0.8-6.6
			c1.3-3.4,3.6-5.8,6.9-7.1c5.6-2.2,11.4-2.2,17,0.1c4.7,2,7,5.8,7.4,10.8c0.2,2.7-0.1,5.4-1.3,7.9c-1.7,3.4-4.5,5.4-8,6.5
			c-1,0.3-2,0.5-3,0.7C293.4,40.1,292.1,40.2,290.9,40.3z M290.9,32.7c0.5-0.1,1.1-0.1,1.6-0.2c2.4-0.4,4.1-1.6,4.8-4
			c0.2-0.9,0.3-1.8,0.3-2.8c-0.1-2.6-1.7-4.6-4.2-5.3c-1.2-0.3-2.4-0.4-3.6-0.3c-3.1,0.3-5.1,2.1-5.5,5.2c-0.3,2.3,0.2,4.4,2.1,5.9
			C287.7,32.4,289.2,32.7,290.9,32.7z"/>
		<path class="st0" d="M72.4,13.1c3.1,0,6.1,0,9.2,0c0,0.3,0,0.5,0,0.7c0,4.5,0,8.9,0,13.4c0,0.5,0,1.1,0.1,1.6
			c0.3,1.6,1.3,2.6,2.8,3c1.9,0.5,3.9,0.5,5.8-0.1c2.5-0.8,3.8-2.6,3.8-5.2c0-4.3,0-8.5,0-12.8c0-0.2,0-0.4,0-0.7c3.1,0,6.2,0,9.2,0
			c0,8.9,0,17.8,0,26.7c-3.1,0-6.1,0-9.2,0c0-1.5,0-3,0-4.6c-0.2,0.2-0.3,0.3-0.3,0.4c-2.2,3.1-5.3,4.5-9,4.7
			c-2.3,0.1-4.7-0.2-6.8-1.2c-3-1.4-4.6-3.8-5.2-7c-0.2-1.1-0.3-2.2-0.3-3.3c0-5.1,0-10.1,0-15.2C72.4,13.4,72.4,13.2,72.4,13.1z"/>
		<path class="st0" d="M178.6,13.1c3.1,0,6.1,0,9.2,0c0,0.3,0,0.5,0,0.7c0,4.5,0,8.9,0,13.4c0,0.5,0,1.1,0.1,1.6
			c0.3,1.6,1.3,2.6,2.8,3c1.9,0.5,3.9,0.5,5.8-0.1c2.5-0.8,3.8-2.6,3.8-5.2c0-4.3,0-8.5,0-12.8c0-0.2,0-0.4,0-0.7c3.1,0,6.1,0,9.2,0
			c0,8.9,0,17.8,0,26.7c-3.1,0-6.1,0-9.2,0c0-1.5,0-3,0-4.6c-0.2,0.2-0.2,0.2-0.3,0.3c-2.2,3.1-5.2,4.6-9,4.8
			c-2.4,0.1-4.7-0.1-6.9-1.2c-3-1.4-4.6-3.8-5.2-7c-0.2-1.1-0.3-2.2-0.3-3.3c0-5.1,0-10.1,0-15.2C178.6,13.4,178.6,13.2,178.6,13.1z
			"/>
		<path class="st0" d="M271,20.9c-3.8,0-7.6,0-11.3,0c0,0.1-0.1,0.1-0.1,0.1c0,2.2-0.1,4.5,0.1,6.7c0.2,2.7,1.5,3.9,4.3,3.9
			c2.6,0.1,5.3,0,7.9,0.1c0.2,0,0.4,0,0.7,0c0,2.7,0,5.3,0,8c-0.1,0-0.2,0-0.3,0c-3.2,0-6.4,0-9.6,0c-1.9,0-3.8-0.3-5.6-1
			c-4-1.4-6.3-4.3-6.7-8.5c-0.3-2.8-0.2-5.7-0.2-8.5c0-0.3,0-0.5,0-0.8c-1.5,0-3,0-4.5,0c0-2.7,0-5.3,0-7.9c1.5,0,3,0,4.5,0
			c0-3.2,0-6.4,0-9.6c3.2,0,6.3,0,9.4,0c0,3.2,0,6.3,0,9.6c3.8,0,7.6,0,11.4,0C271,15.7,271,18.3,271,20.9z"/>
		<path class="st0" d="M69.8,28.6c-0.1,2.5-1,4.6-2.5,6.5c-2,2.4-4.5,3.8-7.5,4.5c-4.2,1-8.3,0.9-12.4-0.5c-5.7-2-9-6.8-8.9-12.8
			c0.1-3.6,1.1-6.8,3.7-9.4c2.1-2.1,4.7-3.3,7.6-3.8c4.2-0.8,8.3-0.7,12.2,0.9c3.6,1.4,6.2,3.8,7.4,7.6c0.3,0.9,0.4,1.8,0.5,2.7
			c-0.3,0-0.5,0.1-0.6,0.1c-2.8,0-5.6,0-8.3,0c-0.3,0-0.5,0-0.6-0.3c-0.5-2-1.9-3.1-3.9-3.5c-1.4-0.3-2.8-0.3-4.2,0
			C49.7,21,48.1,23,48,25.8c0,1,0.1,2,0.3,3c0.4,1.6,1.5,2.7,3,3.3c1.8,0.7,3.7,0.8,5.5,0.3c1.8-0.5,3-1.6,3.4-3.4
			c0.1-0.3,0.1-0.5,0.5-0.5c2.9,0,5.9,0,8.8,0C69.6,28.5,69.7,28.5,69.8,28.6z"/>
		<path class="st0" d="M244.6,24.2c-0.2,0-0.3,0-0.5,0c-2.8,0-5.6,0-8.4,0c-0.3,0-0.4,0-0.5-0.3c-0.5-2.1-2-3.2-4-3.6
			c-1.6-0.3-3.3-0.3-4.9,0.3c-2.4,0.9-3.4,2.8-3.5,5.2c-0.1,1.6,0.1,3.1,1,4.5c1,1.4,2.4,2,4.1,2.3c1.3,0.2,2.7,0.2,4-0.2
			c1.7-0.5,2.8-1.7,3.2-3.4c0.1-0.3,0.2-0.4,0.5-0.4c2.9,0,5.7,0,8.6,0c0.1,0,0.2,0,0.4,0c-0.1,1.7-0.5,3.2-1.3,4.7
			c-1.5,2.7-3.8,4.6-6.7,5.7c-5.6,2-11.2,2-16.5-0.7c-4.2-2.1-6.4-5.8-6.7-10.4c-0.2-2.9,0.2-5.7,1.7-8.3c1.8-3.2,4.6-5.1,8.1-6
			c5.1-1.4,10.1-1.3,14.9,1c3.6,1.7,5.9,4.6,6.5,8.6c0,0.2,0,0.3,0.1,0.5C244.6,23.7,244.6,23.9,244.6,24.2z"/>
	</g>
</g>
</svg>
